<svg width="38" height="58" viewBox="0 0 38 58" fill="none" xmlns="http://www.w3.org/2000/svg">
<path d="M12.1026 50.086C9.77687 51.5287 7.77564 52.1042 6.09894 51.8125C4.43125 51.5153 3.14668 50.378 2.24523 48.4008C1.35279 46.418 0.91108 43.6379 0.920094 40.0607C0.920094 36.4998 1.36631 33.1861 2.25875 30.1199C3.1602 27.048 4.44477 24.3372 6.11246 21.9877C7.78916 19.6219 9.78588 17.7151 12.1026 16.2675C14.4193 14.8198 16.4116 14.234 18.0792 14.51C19.756 14.7804 21.045 15.8882 21.9465 17.8335C22.8479 19.7682 23.2942 22.5189 23.2851 26.0855C23.2851 29.6677 22.8344 33.0107 21.933 36.1145C21.0405 39.2127 19.7605 41.9525 18.0928 44.3339C16.4251 46.7153 14.4284 48.6327 12.1026 50.086ZM12.1026 44.3619C13.6892 43.3705 14.9557 41.6383 15.9022 39.1654C16.8488 36.6925 17.3175 33.5774 17.3085 29.8201C17.3085 27.3434 17.0922 25.4164 16.6595 24.0392C16.2358 22.6563 15.6318 21.7953 14.8475 21.4563C14.0723 21.1116 13.1573 21.2688 12.1026 21.9278C10.5251 22.9136 9.26304 24.6323 8.31651 27.0839C7.36999 29.5356 6.89222 32.6191 6.8832 36.3346C6.8832 38.8432 7.09505 40.8049 7.51873 42.2196C7.95143 43.6181 8.55991 44.4922 9.34417 44.8419C10.1284 45.1809 11.0479 45.0209 12.1026 44.3619ZM37.9814 0.543067V33.1976L32.1265 36.8562V10.7549L31.9642 10.8563L25.6225 19.5067V13.384L32.4781 3.98195L37.9814 0.543067Z" fill="#42FFD9"/>
</svg>
