<svg width="46" height="63" viewBox="0 0 46 63" fill="none" xmlns="http://www.w3.org/2000/svg">
<path d="M12.1026 55.2654C9.77687 56.7081 7.77564 57.2836 6.09894 56.992C4.43125 56.6947 3.14668 55.5575 2.24523 53.5803C1.35279 51.5974 0.91108 48.8174 0.920094 45.2402C0.920094 41.6792 1.36631 38.3656 2.25875 35.2993C3.1602 32.2274 4.44477 29.5167 6.11246 27.1671C7.78916 24.8013 9.78588 22.8946 12.1026 21.4469C14.4193 19.9993 16.4116 19.4134 18.0792 19.6895C19.756 19.9598 21.045 21.0677 21.9465 23.013C22.8479 24.9477 23.2942 27.6983 23.2851 31.2649C23.2851 34.8472 22.8344 38.1902 21.933 41.294C21.0405 44.3921 19.7605 47.1319 18.0928 49.5134C16.4251 51.8948 14.4284 53.8121 12.1026 55.2654ZM12.1026 49.5413C13.6892 48.5499 14.9557 46.8178 15.9022 44.3449C16.8488 41.8719 17.3175 38.7568 17.3085 34.9995C17.3085 32.5228 17.0922 30.5958 16.6595 29.2186C16.2358 27.8357 15.6318 26.9748 14.8475 26.6357C14.0723 26.291 13.1573 26.4482 12.1026 27.1073C10.5251 28.093 9.26304 29.8117 8.31651 32.2634C7.36999 34.715 6.89222 37.7986 6.8832 41.514C6.8832 44.0226 7.09505 45.9843 7.51873 47.399C7.95143 48.7975 8.55991 49.6716 9.34417 50.0213C10.1284 50.3604 11.0479 50.2004 12.1026 49.5413ZM25.9335 45.9054V40.9307L35.7909 24.0085C36.6292 22.528 37.3324 21.2276 37.9003 20.1074C38.4772 18.9816 38.9144 17.959 39.2119 17.0396C39.5094 16.1097 39.6581 15.2142 39.6581 14.3532C39.6581 13.3965 39.4733 12.6882 39.1037 12.2282C38.7341 11.7576 38.2293 11.5362 37.5893 11.5641C36.9493 11.5814 36.2236 11.8435 35.4123 12.3504C34.5649 12.8799 33.8257 13.5438 33.1947 14.342C32.5637 15.1403 32.0769 16.0238 31.7344 16.9925C31.3918 17.9613 31.2205 18.9665 31.2205 20.0082L25.6631 23.4809C25.6631 21.3443 26.0732 19.2332 26.8936 17.1474C27.7139 15.0616 28.8632 13.1263 30.3416 11.3415C31.82 9.55665 33.5237 8.06153 35.4528 6.85609C37.436 5.61685 39.1623 4.95271 40.6317 4.86367C42.1101 4.75836 43.2594 5.17755 44.0797 6.12123C44.9001 7.06491 45.3102 8.47748 45.3102 10.3589C45.3102 11.592 45.1029 12.9387 44.6882 14.3989C44.2826 15.8536 43.5569 17.641 42.5112 19.7614C41.4655 21.8711 39.9917 24.5406 38.0896 27.7701L34.0466 34.9682V35.1914L45.6753 27.925V33.5694L25.9335 45.9054Z" fill="#38DDBC"/>
</svg>
