<svg width="47" height="63" viewBox="0 0 47 63" fill="none" xmlns="http://www.w3.org/2000/svg">
<path d="M12.1026 55.7952C9.77687 57.2379 7.77564 57.8134 6.09894 57.5218C4.43125 57.2245 3.14668 56.0873 2.24523 54.1101C1.35279 52.1272 0.91108 49.3472 0.920094 45.7699C0.920094 42.209 1.36631 38.8954 2.25875 35.8291C3.1602 32.7572 4.44477 30.0465 6.11246 27.6969C7.78916 25.3311 9.78588 23.4244 12.1026 21.9767C14.4193 20.5291 16.4116 19.9432 18.0792 20.2192C19.756 20.4896 21.045 21.5974 21.9465 23.5428C22.8479 25.4775 23.2942 28.2281 23.2851 31.7947C23.2851 35.3769 22.8344 38.7199 21.933 41.8237C21.0405 44.9219 19.7605 47.6617 18.0928 50.0431C16.4251 52.4246 14.4284 54.3419 12.1026 55.7952ZM12.1026 50.0711C13.6892 49.0797 14.9557 47.3476 15.9022 44.8746C16.8488 42.4017 17.3175 39.2866 17.3085 35.5293C17.3085 33.0526 17.0922 31.1256 16.6595 29.7484C16.2358 28.3655 15.6318 27.5046 14.8475 27.1655C14.0723 26.8208 13.1573 26.978 12.1026 27.6371C10.5251 28.6228 9.26304 30.3415 8.31651 32.7932C7.36999 35.2448 6.89222 38.3284 6.8832 42.0438C6.8832 44.5524 7.09505 46.5141 7.51873 47.9288C7.95143 49.3273 8.55991 50.2014 9.34417 50.5511C10.1284 50.8902 11.0479 50.7302 12.1026 50.0711ZM36.1695 40.4855C34.1502 41.7473 32.3518 42.4618 30.7743 42.6291C29.2058 42.7801 27.9663 42.4172 27.0558 41.5405C26.1544 40.6475 25.6901 39.2581 25.6631 37.3723L31.5586 33.6884C31.5946 34.4631 31.8155 35.0266 32.2211 35.379C32.6358 35.7152 33.1857 35.834 33.8708 35.7354C34.5559 35.6368 35.3266 35.32 36.183 34.7848C37.0755 34.2272 37.8642 33.5483 38.5493 32.7481C39.2344 31.948 39.7708 31.0973 40.1584 30.196C40.5461 29.2948 40.7399 28.4136 40.7399 27.5526C40.7399 26.681 40.5325 26.0399 40.1179 25.6293C39.7122 25.2025 39.1263 25.0372 38.36 25.1333C37.6028 25.2238 36.7014 25.5957 35.6557 26.2492L33.073 27.863V22.7926L35.6557 21.1788C36.5391 20.6267 37.3189 19.9588 37.9949 19.1749C38.68 18.3854 39.2119 17.5535 39.5905 16.6791C39.9691 15.7941 40.1584 14.9211 40.1584 14.0601C40.1584 13.2416 39.9917 12.6283 39.6581 12.2202C39.3336 11.7958 38.8739 11.5941 38.2789 11.6151C37.693 11.6305 37.0079 11.8832 36.2236 12.3733C35.4303 12.869 34.7046 13.4925 34.0466 14.2438C33.3885 14.9846 32.8612 15.7871 32.4645 16.6515C32.0679 17.5159 31.856 18.371 31.829 19.2171L26.2175 22.7235C26.2445 20.8252 26.6997 18.8825 27.5832 16.8954C28.4666 14.9084 29.6565 13.0434 31.1529 11.3005C32.6583 9.54132 34.3576 8.07027 36.2506 6.88736C38.1617 5.69319 39.8339 5.05753 41.2672 4.98039C42.7005 4.90325 43.8138 5.31308 44.6071 6.20988C45.4094 7.09041 45.806 8.39451 45.797 10.1222C45.806 11.9448 45.3238 13.7716 44.3502 15.6023C43.3856 17.4275 42.1281 18.9892 40.5776 20.2876V20.5427C42.6149 19.578 44.1654 19.4435 45.2291 20.1395C46.3018 20.8191 46.8337 22.1769 46.8247 24.2128C46.8337 26.0674 46.3785 28.0048 45.459 30.025C44.5485 32.0395 43.291 33.9627 41.6864 35.7945C40.0818 37.6263 38.2428 39.1899 36.1695 40.4855Z" fill="#1ABE9D"/>
</svg>
