<svg width="48" height="64" viewBox="0 0 48 64" fill="none" xmlns="http://www.w3.org/2000/svg">
<path d="M12.1026 56.325C9.77687 57.7677 7.77564 58.3432 6.09894 58.0516C4.43125 57.7543 3.14668 56.6171 2.24523 54.6398C1.35279 52.657 0.91108 49.877 0.920094 46.2997C0.920094 42.7388 1.36631 39.4251 2.25875 36.3589C3.1602 33.287 4.44477 30.5762 6.11246 28.2267C7.78916 25.8609 9.78588 23.9542 12.1026 22.5065C14.4193 21.0588 16.4116 20.473 18.0792 20.749C19.756 21.0194 21.045 22.1272 21.9465 24.0726C22.8479 26.0073 23.2942 28.7579 23.2851 32.3245C23.2851 35.9067 22.8344 39.2497 21.933 42.3535C21.0405 45.4517 19.7605 48.1915 18.0928 50.5729C16.4251 52.9544 14.4284 54.8717 12.1026 56.325ZM12.1026 50.6009C13.6892 49.6095 14.9557 47.8773 15.9022 45.4044C16.8488 42.9315 17.3175 39.8164 17.3085 36.0591C17.3085 33.5824 17.0922 31.6554 16.6595 30.2782C16.2358 28.8953 15.6318 28.0344 14.8475 27.6953C14.0723 27.3506 13.1573 27.5078 12.1026 28.1668C10.5251 29.1526 9.26304 30.8713 8.31651 33.323C7.36999 35.7746 6.89222 38.8582 6.8832 42.5736C6.8832 45.0822 7.09505 47.0439 7.51873 48.4586C7.95143 49.8571 8.55991 50.7312 9.34417 51.0809C10.1284 51.4199 11.0479 51.2599 12.1026 50.6009ZM25.5143 41.4869V36.0498L37.0755 7.34819L41.0509 4.86408V12.3899L38.6981 13.8601L31.4098 32.0151V32.2702L47.8388 22.0042V27.537L25.5143 41.4869ZM38.8062 38.9212V31.5229L38.9144 29.0477V6.19908L44.4043 2.76864V35.4232L38.8062 38.9212Z" fill="#008E72"/>
</svg>
