<svg width="47" height="63" viewBox="0 0 47 63" fill="none" xmlns="http://www.w3.org/2000/svg">
<path d="M12.1026 55.3253C9.77687 56.7679 7.77564 57.3434 6.09894 57.0518C4.43125 56.7545 3.14668 55.6173 2.24523 53.6401C1.35279 51.6572 0.91108 48.8772 0.920094 45.3C0.920094 41.739 1.36631 38.4254 2.25875 35.3591C3.1602 32.2872 4.44477 29.5765 6.11246 27.2269C7.78916 24.8611 9.78588 22.9544 12.1026 21.5067C14.4193 20.0591 16.4116 19.4733 18.0792 19.7493C19.756 20.0196 21.045 21.1275 21.9465 23.0728C22.8479 25.0075 23.2942 27.7581 23.2851 31.3247C23.2851 34.907 22.8344 38.25 21.933 41.3538C21.0405 44.4519 19.7605 47.1917 18.0928 49.5732C16.4251 51.9546 14.4284 53.872 12.1026 55.3253ZM12.1026 49.6011C13.6892 48.6097 14.9557 46.8776 15.9022 44.4047C16.8488 41.9318 17.3175 38.8167 17.3085 35.0594C17.3085 32.5826 17.0922 30.6557 16.6595 29.2784C16.2358 27.8956 15.6318 27.0346 14.8475 26.6955C14.0723 26.3509 13.1573 26.508 12.1026 27.1671C10.5251 28.1528 9.26304 29.8715 8.31651 32.3232C7.36999 34.7749 6.89222 37.8584 6.8832 41.5738C6.8832 44.0824 7.09505 46.0441 7.51873 47.4589C7.95143 48.8574 8.55991 49.7314 9.34417 50.0811C10.1284 50.4202 11.0479 50.2602 12.1026 49.6011ZM36.0478 40.0916C34.1367 41.2858 32.433 41.9358 30.9366 42.0418C29.4492 42.1421 28.2683 41.7373 27.3939 40.8274C26.5194 39.9175 26.0642 38.5331 26.0282 36.6742L31.7073 33.1254C31.7704 34.351 32.2211 35.0951 33.0595 35.3578C33.8978 35.6206 34.8939 35.3914 36.0478 34.6704C36.9673 34.0959 37.7786 33.3497 38.4817 32.432C39.1939 31.4981 39.7483 30.4766 40.1449 29.3678C40.5506 28.2427 40.7534 27.1167 40.7534 25.99C40.7534 24.842 40.5461 23.9617 40.1314 23.3492C39.7257 22.731 39.1623 22.4028 38.4412 22.3644C37.72 22.3261 36.8952 22.5917 35.9667 23.1613C35.1554 23.6682 34.3666 24.3578 33.6004 25.2299C32.8431 26.0963 32.2527 27.0021 31.829 27.9471L26.6231 30.1L27.9347 12.0602L44.864 1.4816V7.12599L32.762 14.6882L32.0454 23.3156L32.2076 23.2142C32.6944 22.1021 33.4291 20.9734 34.4117 19.8279C35.3943 18.6824 36.494 17.7295 37.711 16.969C39.3787 15.9269 40.8661 15.4599 42.1732 15.5679C43.4803 15.6759 44.5124 16.3012 45.2697 17.4438C46.0269 18.5757 46.401 20.1915 46.392 22.2912C46.401 24.4859 45.9683 26.7122 45.0939 28.97C44.2285 31.2115 43.016 33.3085 41.4565 35.2609C39.906 37.197 38.1031 38.8073 36.0478 40.0916Z" fill="#037B63"/>
</svg>
