<svg width="47" height="63" viewBox="0 0 47 63" fill="none" xmlns="http://www.w3.org/2000/svg">
<path d="M12.1026 55.7952C9.77687 57.2379 7.77564 57.8134 6.09894 57.5218C4.43125 57.2245 3.14668 56.0873 2.24523 54.1101C1.35279 52.1272 0.91108 49.3472 0.920094 45.7699C0.920094 42.209 1.36631 38.8954 2.25875 35.8291C3.1602 32.7572 4.44477 30.0465 6.11246 27.6969C7.78916 25.3311 9.78588 23.4244 12.1026 21.9767C14.4193 20.5291 16.4116 19.9432 18.0792 20.2192C19.756 20.4896 21.045 21.5974 21.9465 23.5428C22.8479 25.4775 23.2942 28.2281 23.2851 31.7947C23.2851 35.3769 22.8344 38.7199 21.933 41.8237C21.0405 44.9219 19.7605 47.6617 18.0928 50.0431C16.4251 52.4246 14.4284 54.3419 12.1026 55.7952ZM12.1026 50.0711C13.6892 49.0797 14.9557 47.3476 15.9022 44.8746C16.8488 42.4017 17.3175 39.2866 17.3085 35.5293C17.3085 33.0526 17.0922 31.1256 16.6595 29.7484C16.2358 28.3655 15.6318 27.5046 14.8475 27.1655C14.0723 26.8208 13.1573 26.978 12.1026 27.6371C10.5251 28.6228 9.26304 30.3415 8.31651 32.7932C7.36999 35.2448 6.89222 38.3284 6.8832 42.0438C6.8832 44.5524 7.09505 46.5141 7.51873 47.9288C7.95143 49.3273 8.55991 50.2014 9.34417 50.5511C10.1284 50.8902 11.0479 50.7302 12.1026 50.0711ZM36.5616 40.2405C35.1373 41.1198 33.7626 41.6972 32.4375 41.9725C31.1214 42.2421 29.9405 42.0818 28.8948 41.4916C27.8491 40.9013 27.0198 39.7719 26.4068 38.1034C25.8028 36.4293 25.5008 34.0987 25.5008 31.1118C25.5098 28.3637 25.7758 25.7473 26.2986 23.2628C26.8304 20.762 27.5877 18.4499 28.5703 16.3265C29.5619 14.1974 30.7473 12.3087 32.1265 10.6603C33.5057 9.0012 35.0517 7.63654 36.7645 6.56629C38.6124 5.41154 40.2441 4.81718 41.6593 4.78319C43.0746 4.73857 44.2105 5.17153 45.0668 6.08205C45.9322 6.98693 46.4551 8.28126 46.6354 9.96502L40.8616 13.5729C40.6362 12.5763 40.1629 11.9792 39.4418 11.7814C38.7206 11.5836 37.8282 11.8171 36.7645 12.4817C34.9616 13.6083 33.5913 15.3893 32.6538 17.8247C31.7253 20.2545 31.2521 23.0641 31.234 26.2537L31.4234 26.1354C31.838 24.909 32.3969 23.7359 33.1001 22.6163C33.8122 21.4803 34.619 20.45 35.5205 19.5253C36.4309 18.5843 37.391 17.7984 38.4006 17.1675C40.0412 16.1423 41.5016 15.6869 42.7817 15.8012C44.0617 15.9048 45.0713 16.5176 45.8105 17.6396C46.5497 18.7615 46.9193 20.3429 46.9193 22.3838C46.9193 24.5948 46.4821 26.8345 45.6077 29.1029C44.7423 31.3657 43.5299 33.4733 41.9703 35.4257C40.4198 37.3619 38.6169 38.9668 36.5616 40.2405ZM36.5346 34.8362C37.436 34.2729 38.2428 33.5137 38.955 32.5584C39.6671 31.6032 40.226 30.563 40.6317 29.4379C41.0373 28.3128 41.2402 27.2081 41.2402 26.1239C41.2402 25.0397 41.0373 24.1938 40.6317 23.5862C40.2351 22.9731 39.6852 22.6311 38.982 22.5602C38.2789 22.4894 37.4766 22.7356 36.5752 23.2989C35.8991 23.7213 35.2726 24.2616 34.6956 24.9198C34.1277 25.5723 33.6274 26.2995 33.1947 27.1013C32.771 27.8976 32.4375 28.7225 32.1941 29.5761C31.9507 30.4192 31.829 31.234 31.829 32.0206C31.829 33.0729 32.0318 33.9082 32.4375 34.5263C32.8522 35.1389 33.4111 35.4859 34.1142 35.5674C34.8263 35.6432 35.6331 35.3995 36.5346 34.8362Z" fill="#F8961E"/>
</svg>
