<svg width="64" height="38" viewBox="0 0 64 38" fill="none" xmlns="http://www.w3.org/2000/svg">
<path d="M27.5593 30.938L27.0565 30.0451L27.5593 30.938ZM20.9601 30.9956L21.4472 30.094L20.9601 30.9956ZM52.3731 12.1207L50.8524 12.4256L52.3731 12.1207ZM52.4071 16.0079L50.8813 15.7297L52.4071 16.0079ZM29.7763 2.94206L30.2791 3.83501L29.7763 2.94206ZM36.3755 2.88447L35.8884 3.78606L36.3755 2.88447ZM4.92849 17.8721L6.4543 18.1504L4.92849 17.8721ZM4.96242 21.7593L6.48314 21.4545L4.96242 21.7593ZM39.4948 30.593C39.0436 31.0438 39.2946 31.6212 40.0554 31.8827C40.8163 32.1441 41.7989 31.9906 42.2501 31.5399L40.8724 31.0665L39.4948 30.593ZM42.6405 29.3001L41.2629 28.8267L41.2629 28.8267L42.6405 29.3001ZM49.9277 24.9215L49.0966 24.1197L49.9277 24.9215ZM53.7219 24.6469C54.4781 24.3722 54.719 23.7906 54.26 23.3477C53.8009 22.9049 52.8158 22.7686 52.0597 23.0433L52.8908 23.8451L53.7219 24.6469ZM41.9371 23.2735C41.3083 22.9106 40.2942 22.9194 39.672 23.2933C39.0497 23.6672 39.0549 24.2646 39.6836 24.6275L40.8103 23.9505L41.9371 23.2735ZM35.1185 20.6644C34.4962 21.0383 34.5015 21.6356 35.1302 21.9986C35.7589 22.3616 36.773 22.3527 37.3952 21.9788L36.2569 21.3216L35.1185 20.6644ZM46.409 16.5628C47.0313 16.1889 47.0261 15.5916 46.3974 15.2286C45.7687 14.8656 44.7545 14.8744 44.1323 15.2483L45.2706 15.9056L46.409 16.5628ZM45.8309 26.8492L46.9693 27.5064L45.8309 26.8492ZM12.0184 12.6375L13.1567 13.2948L22.1705 7.87875L21.0321 7.22152L19.8937 6.56428L10.88 11.9803L12.0184 12.6375ZM45.3172 21.2425L44.1788 20.5853L35.1651 26.0013L36.3034 26.6585L37.4418 27.3158L46.4556 21.8998L45.3172 21.2425ZM36.3034 26.6585L35.1651 26.0013C33.0431 27.2763 31.5185 28.1914 30.2237 28.853C28.9432 29.5074 27.9928 29.8574 27.0565 30.0451L27.5593 30.938L28.062 31.831C29.5597 31.5307 30.878 31.0048 32.3094 30.2734C33.7265 29.5492 35.357 28.5685 37.4418 27.3158L36.3034 26.6585ZM12.1425 26.8694L11.0158 27.5464C13.1222 28.7625 14.7695 29.7146 16.1991 30.414C17.643 31.1203 18.9703 31.6232 20.473 31.8972L20.9601 30.9956L21.4472 30.094C20.5078 29.9227 19.5514 29.5894 18.2597 28.9574C16.9536 28.3185 15.4132 27.4302 13.2693 26.1924L12.1425 26.8694ZM27.5593 30.938L27.0565 30.0451C25.2367 30.4098 23.2731 30.427 21.4472 30.094L20.9601 30.9956L20.473 31.8972C22.9433 32.3477 25.5999 32.3245 28.062 31.831L27.5593 30.938ZM45.193 7.01067L44.0663 7.68767C46.2102 8.92547 47.7488 9.81482 48.8595 10.5712C49.958 11.3193 50.5429 11.8758 50.8524 12.4256L52.3731 12.1207L53.8939 11.8159C53.3987 10.9365 52.5187 10.1649 51.2909 9.32873C50.0752 8.50086 48.4261 7.54978 46.3197 6.33367L45.193 7.01067ZM45.3172 21.2425L46.4556 21.8998C48.5404 20.6471 50.1727 19.6674 51.3737 18.8184C52.5868 17.9609 53.4531 17.1741 53.9329 16.2862L52.4071 16.0079L50.8813 15.7297C50.5814 16.2848 50.0062 16.8514 48.921 17.6186C47.8237 18.3942 46.3008 19.3103 44.1788 20.5853L45.3172 21.2425ZM52.3731 12.1207L50.8524 12.4256C51.4541 13.4941 51.4642 14.6508 50.8813 15.7297L52.4071 16.0079L53.9329 16.2862C54.7215 14.8265 54.7079 13.2616 53.8939 11.8159L52.3731 12.1207ZM21.0321 7.22152L22.1705 7.87875C24.2925 6.60373 25.8171 5.68868 27.1119 5.02704C28.3924 4.37267 29.3428 4.02269 30.2791 3.83501L29.7763 2.94206L29.2735 2.0491C27.7758 2.34932 26.4576 2.87521 25.0262 3.60668C23.6091 4.33086 21.9786 5.3116 19.8937 6.56428L21.0321 7.22152ZM45.193 7.01067L46.3197 6.33367C44.2134 5.11756 42.566 4.16543 41.1365 3.46608C39.6925 2.75972 38.3653 2.25691 36.8626 1.98288L36.3755 2.88447L35.8884 3.78606C36.8278 3.95737 37.7841 4.29071 39.0759 4.92263C40.382 5.56158 41.9224 6.44987 44.0663 7.68767L45.193 7.01067ZM29.7763 2.94206L30.2791 3.83501C32.0989 3.47022 34.0625 3.45308 35.8884 3.78606L36.3755 2.88447L36.8626 1.98288C34.3922 1.53238 31.7356 1.55556 29.2735 2.0491L29.7763 2.94206ZM12.0184 12.6375L10.88 11.9803C8.79517 13.233 7.16291 14.2127 5.96189 15.0617C4.74881 15.9192 3.88241 16.7059 3.40268 17.5939L4.92849 17.8721L6.4543 18.1504C6.75421 17.5953 7.32933 17.0286 8.41456 16.2615C9.51186 15.4859 11.0347 14.5698 13.1567 13.2948L12.0184 12.6375ZM12.1425 26.8694L13.2693 26.1924C11.1253 24.9546 9.58673 24.0652 8.47606 23.3089C7.37761 22.5608 6.79268 22.0043 6.48314 21.4545L4.96242 21.7593L3.4417 22.0642C3.93685 22.9436 4.81684 23.7151 6.04471 24.5513C7.26036 25.3792 8.90947 26.3303 11.0158 27.5464L12.1425 26.8694ZM4.92849 17.8721L3.40268 17.5939C2.61404 19.0536 2.62769 20.6184 3.4417 22.0642L4.96242 21.7593L6.48314 21.4545C5.88148 20.3859 5.87139 19.2293 6.4543 18.1504L4.92849 17.8721ZM40.8724 31.0665L42.2501 31.5399L44.0181 29.7735L42.6405 29.3001L41.2629 28.8267L39.4948 30.593L40.8724 31.0665ZM49.9277 24.9215L50.7588 25.7233L53.7219 24.6469L52.8908 23.8451L52.0597 23.0433L49.0966 24.1197L49.9277 24.9215ZM45.3638 26.5795L46.4905 25.9025L41.9371 23.2735L40.8103 23.9505L39.6836 24.6275L44.2371 27.2565L45.3638 26.5795ZM36.2569 21.3216L37.3952 21.9788L46.409 16.5628L45.2706 15.9056L44.1323 15.2483L35.1185 20.6644L36.2569 21.3216ZM42.6405 29.3001L44.0181 29.7735C44.8451 28.9474 45.8373 28.1866 46.9693 27.5064L45.8309 26.8492L44.6926 26.1919C43.377 26.9824 42.2239 27.8666 41.2629 28.8267L42.6405 29.3001ZM45.8309 26.8492L46.9693 27.5064C48.1012 26.8263 49.3729 26.2268 50.7588 25.7233L49.9277 24.9215L49.0966 24.1197C47.486 24.7048 46.0081 25.4015 44.6926 26.1919L45.8309 26.8492ZM45.3638 26.5795L44.2371 27.2565L44.7042 27.5262L45.8309 26.8492L46.9576 26.1722L46.4905 25.9025L45.3638 26.5795Z" fill="#1ABE9D"/>
<path d="M30.248 24.9308C31.0863 25.4148 31.0932 26.2113 30.2635 26.7098C29.4338 27.2084 28.0817 27.2202 27.2434 26.7362C26.4051 26.2522 26.3982 25.4557 27.2279 24.9572C28.0576 24.4587 29.4097 24.4469 30.248 24.9308Z" fill="#1ABE9D"/>
</svg>
