<svg width="384" height="361" viewBox="0 0 384 361" fill="none" xmlns="http://www.w3.org/2000/svg">
<rect width="384" height="326" fill="url(#paint0_linear_19_136)"/>
<rect width="384" height="326" fill="url(#paint1_linear_19_136)" fill-opacity="0.2"/>
<g clip-path="url(#clip0_19_136)">
<path opacity="0.15" d="M296.091 170.424C296.091 113.025 249.169 66.4834 191.278 66.4834C133.387 66.4834 86.4551 113.025 86.4551 170.424C86.4551 227.824 133.377 274.355 191.278 274.355C249.169 274.355 296.091 227.824 296.091 170.424Z" stroke="url(#paint2_linear_19_136)" stroke-width="1.5" stroke-miterlimit="10"/>
<path opacity="0.15" d="M331.293 170.414C331.293 93.8746 268.73 31.833 191.529 31.833C114.348 31.833 51.7754 93.8746 51.7754 170.414C51.7754 246.953 114.348 308.995 191.539 308.995C268.72 308.995 331.303 246.953 331.303 170.414H331.293Z" stroke="url(#paint3_linear_19_136)" stroke-width="1.5" stroke-miterlimit="10"/>
<path opacity="0.15" d="M381.584 170.404C381.584 66.5333 296.663 -17.666 191.91 -17.666C87.1575 -17.666 2.23633 66.5333 2.23633 170.404C2.23633 274.274 87.1575 358.474 191.91 358.474C296.663 358.474 381.584 274.274 381.584 170.404Z" stroke="url(#paint4_linear_19_136)" stroke-width="1.5" stroke-miterlimit="10"/>
</g>
<defs>
<linearGradient id="paint0_linear_19_136" x1="192" y1="0" x2="192" y2="326" gradientUnits="userSpaceOnUse">
<stop stop-color="#F8961E"/>
<stop offset="0.995192" stop-color="#107478"/>
</linearGradient>
<linearGradient id="paint1_linear_19_136" x1="13.5" y1="214.5" x2="389.5" y2="298" gradientUnits="userSpaceOnUse">
<stop stop-color="#23B6BC"/>
<stop offset="1" stop-color="#053436"/>
</linearGradient>
<linearGradient id="paint2_linear_19_136" x1="86.034" y1="170.454" x2="296.472" y2="170.454" gradientUnits="userSpaceOnUse">
<stop stop-color="#A3A7B1" stop-opacity="0"/>
<stop offset="0.49" stop-color="#A3A7B1"/>
<stop offset="1" stop-color="#A3A7B1" stop-opacity="0"/>
</linearGradient>
<linearGradient id="paint3_linear_19_136" x1="51.2139" y1="170.464" x2="331.805" y2="170.464" gradientUnits="userSpaceOnUse">
<stop stop-color="#A3A7B1" stop-opacity="0"/>
<stop offset="0.49" stop-color="#A3A7B1"/>
<stop offset="1" stop-color="#A3A7B1" stop-opacity="0"/>
</linearGradient>
<linearGradient id="paint4_linear_19_136" x1="1.47434" y1="170.464" x2="382.266" y2="170.464" gradientUnits="userSpaceOnUse">
<stop stop-color="#A3A7B1" stop-opacity="0"/>
<stop offset="0.49" stop-color="#A3A7B1"/>
<stop offset="1" stop-color="#A3A7B1" stop-opacity="0"/>
</linearGradient>
<clipPath id="clip0_19_136">
<rect width="384" height="360.94" fill="white"/>
</clipPath>
</defs>
</svg>
