<svg width="520" height="24" viewBox="0 0 520 24" fill="none" xmlns="http://www.w3.org/2000/svg">
<g filter="url(#filter0_d_605_5922)">
<path d="M221.023 11C221.022 11.6667 221.02 12.3334 221.018 13C217.518 12.9749 214.018 12.9498 210.517 12.9247C147.512 12.4728 84.5064 12.0209 21.5009 11.569C18.0006 11.5439 14.5003 11.5188 11 11.4937C14.5004 11.4854 18.0008 11.4772 21.5012 11.469C84.5081 11.3209 147.515 11.1728 210.522 11.0247C214.022 11.0165 217.523 11.0083 221.023 11Z" fill="url(#paint0_linear_605_5922)"/>
</g>
<path d="M232.711 15H231.597L235.83 3.36364H236.967L241.2 15H240.086L236.438 4.74432H236.359L232.711 15ZM233.512 10.5398H239.285V11.4943H233.512V10.5398ZM241.394 15V3.36364H242.411V7.9375H242.502C242.616 7.67614 242.779 7.4072 242.991 7.13068C243.207 6.85417 243.489 6.62311 243.837 6.4375C244.19 6.24811 244.633 6.15341 245.167 6.15341C245.883 6.15341 246.512 6.3428 247.053 6.72159C247.595 7.09659 248.017 7.62311 248.32 8.30114C248.623 8.97538 248.775 9.76136 248.775 10.6591C248.775 11.5606 248.623 12.3504 248.32 13.0284C248.021 13.7064 247.601 14.2348 247.059 14.6136C246.521 14.9924 245.896 15.1818 245.184 15.1818C244.654 15.1818 244.21 15.0871 243.854 14.8977C243.502 14.7083 243.218 14.4754 243.002 14.1989C242.786 13.9186 242.619 13.6458 242.502 13.3807H242.377V15H241.394ZM242.394 10.642C242.394 11.3466 242.498 11.9716 242.707 12.517C242.919 13.0587 243.222 13.4848 243.616 13.7955C244.013 14.1023 244.494 14.2557 245.059 14.2557C245.638 14.2557 246.129 14.0966 246.53 13.7784C246.932 13.4564 247.237 13.0227 247.445 12.4773C247.654 11.9318 247.758 11.3201 247.758 10.642C247.758 9.97159 247.654 9.36742 247.445 8.82955C247.241 8.29167 246.938 7.86553 246.536 7.55114C246.135 7.23295 245.642 7.07386 245.059 7.07386C244.491 7.07386 244.008 7.22727 243.61 7.53409C243.216 7.83712 242.915 8.25758 242.707 8.79545C242.498 9.32955 242.394 9.94508 242.394 10.642ZM252.588 15.1818C251.835 15.1818 251.168 14.9905 250.588 14.608C250.013 14.2254 249.562 13.697 249.236 13.0227C248.91 12.3447 248.747 11.5625 248.747 10.6761C248.747 9.7822 248.91 8.99621 249.236 8.31818C249.562 7.63636 250.013 7.10606 250.588 6.72727C251.168 6.3447 251.835 6.15341 252.588 6.15341C253.342 6.15341 254.007 6.3447 254.583 6.72727C255.158 7.10985 255.609 7.64015 255.935 8.31818C256.265 8.99621 256.429 9.7822 256.429 10.6761C256.429 11.5625 256.266 12.3447 255.941 13.0227C255.615 13.697 255.162 14.2254 254.583 14.608C254.007 14.9905 253.342 15.1818 252.588 15.1818ZM252.588 14.2557C253.194 14.2557 253.708 14.0928 254.128 13.767C254.549 13.4413 254.867 13.0076 255.083 12.4659C255.302 11.9242 255.412 11.3277 255.412 10.6761C255.412 10.0246 255.302 9.42614 255.083 8.88068C254.867 8.33523 254.549 7.89773 254.128 7.56818C253.708 7.23864 253.194 7.07386 252.588 7.07386C251.986 7.07386 251.473 7.23864 251.049 7.56818C250.628 7.89773 250.308 8.33523 250.088 8.88068C249.872 9.42614 249.765 10.0246 249.765 10.6761C249.765 11.3277 249.872 11.9242 250.088 12.4659C250.308 13.0076 250.628 13.4413 251.049 13.767C251.469 14.0928 251.982 14.2557 252.588 14.2557ZM262.395 11.6648V6.27273H263.406V15H262.395V13.5511H262.315C262.111 13.9981 261.787 14.3712 261.344 14.6705C260.901 14.9659 260.359 15.1136 259.719 15.1136C259.162 15.1136 258.668 14.9924 258.236 14.75C257.804 14.5038 257.465 14.1439 257.219 13.6705C256.973 13.197 256.849 12.6155 256.849 11.9261V6.27273H257.861V11.8636C257.861 12.5455 258.062 13.0947 258.463 13.5114C258.865 13.9242 259.38 14.1307 260.009 14.1307C260.403 14.1307 260.781 14.036 261.145 13.8466C261.509 13.6572 261.808 13.3807 262.043 13.017C262.278 12.6496 262.395 12.1989 262.395 11.6648ZM267.721 6.27273V7.15341H263.557V6.27273H267.721ZM264.858 4.18182H265.875V12.7216C265.875 13.0852 265.937 13.3712 266.062 13.5795C266.187 13.7841 266.35 13.9299 266.551 14.017C266.752 14.1004 266.966 14.142 267.193 14.142C267.326 14.142 267.439 14.1345 267.534 14.1193C267.629 14.1004 267.712 14.0814 267.784 14.0625L268 14.9773C267.901 15.0152 267.78 15.0492 267.636 15.0795C267.492 15.1136 267.314 15.1307 267.102 15.1307C266.731 15.1307 266.373 15.0492 266.028 14.8864C265.687 14.7235 265.407 14.4811 265.187 14.1591C264.968 13.8371 264.858 13.4375 264.858 12.9602V4.18182ZM278.884 3.36364H279.947V11.0682C279.947 11.8598 279.761 12.5682 279.39 13.1932C279.019 13.8144 278.502 14.3049 277.839 14.6648C277.18 15.0208 276.413 15.1989 275.538 15.1989C274.666 15.1989 273.899 15.0189 273.236 14.6591C272.574 14.2992 272.056 13.8087 271.685 13.1875C271.314 12.5663 271.128 11.8598 271.128 11.0682V3.36364H272.191V10.9943C272.191 11.6117 272.329 12.1629 272.606 12.6477C272.882 13.1288 273.271 13.5076 273.771 13.7841C274.274 14.0606 274.863 14.1989 275.538 14.1989C276.212 14.1989 276.801 14.0606 277.305 13.7841C277.808 13.5076 278.197 13.1288 278.469 12.6477C278.746 12.1629 278.884 11.6117 278.884 10.9943V3.36364ZM286.888 8.1875L285.962 8.44886C285.871 8.1875 285.742 7.95076 285.576 7.73864C285.409 7.52652 285.191 7.35795 284.922 7.23295C284.657 7.10795 284.328 7.04545 283.934 7.04545C283.343 7.04545 282.858 7.18561 282.479 7.46591C282.1 7.74621 281.911 8.10795 281.911 8.55114C281.911 8.92614 282.04 9.23106 282.297 9.46591C282.559 9.69697 282.96 9.88068 283.502 10.017L284.82 10.3409C285.551 10.5189 286.098 10.8011 286.462 11.1875C286.829 11.5739 287.013 12.0587 287.013 12.642C287.013 13.1345 286.877 13.572 286.604 13.9545C286.331 14.3371 285.951 14.6383 285.462 14.858C284.977 15.0739 284.415 15.1818 283.774 15.1818C282.922 15.1818 282.22 14.9905 281.667 14.608C281.114 14.2216 280.759 13.6648 280.604 12.9375L281.576 12.6989C281.701 13.2178 281.945 13.6098 282.309 13.875C282.676 14.1402 283.159 14.2727 283.757 14.2727C284.428 14.2727 284.964 14.1231 285.365 13.8239C285.767 13.5208 285.968 13.142 285.968 12.6875C285.968 12.3352 285.85 12.0398 285.615 11.8011C285.381 11.5587 285.024 11.3807 284.547 11.267L283.121 10.9261C282.364 10.7443 281.803 10.4564 281.439 10.0625C281.076 9.66856 280.894 9.17992 280.894 8.59659C280.894 8.11553 281.024 7.69318 281.286 7.32955C281.547 6.96212 281.907 6.67424 282.365 6.46591C282.824 6.25758 283.346 6.15341 283.934 6.15341C284.733 6.15341 285.371 6.33523 285.848 6.69886C286.329 7.05871 286.676 7.55492 286.888 8.1875Z" fill="#ADB2B1"/>
<g filter="url(#filter1_d_605_5922)">
<path d="M298.017 11C298.02 11.6667 298.022 12.3334 298.025 13C301.525 12.9698 305.026 12.9395 308.526 12.9093C371.531 12.3647 434.535 11.8202 497.54 11.2757C501.04 11.2454 504.541 11.2152 508.041 11.1849C504.541 11.1819 501.04 11.1788 497.54 11.1757C434.533 11.1202 371.526 11.0648 308.518 11.0093C305.018 11.0062 301.518 11.0031 298.017 11Z" fill="url(#paint1_linear_605_5922)"/>
</g>
<defs>
<filter id="filter0_d_605_5922" x="0" y="0" width="232.023" height="24" filterUnits="userSpaceOnUse" color-interpolation-filters="sRGB">
<feFlood flood-opacity="0" result="BackgroundImageFix"/>
<feColorMatrix in="SourceAlpha" type="matrix" values="0 0 0 0 0 0 0 0 0 0 0 0 0 0 0 0 0 0 127 0" result="hardAlpha"/>
<feOffset/>
<feGaussianBlur stdDeviation="5.5"/>
<feComposite in2="hardAlpha" operator="out"/>
<feColorMatrix type="matrix" values="0 0 0 0 0.202036 0 0 0 0 1 0 0 0 0 0.661042 0 0 0 0.89 0"/>
<feBlend mode="normal" in2="BackgroundImageFix" result="effect1_dropShadow_605_5922"/>
<feBlend mode="normal" in="SourceGraphic" in2="effect1_dropShadow_605_5922" result="shape"/>
</filter>
<filter id="filter1_d_605_5922" x="287.018" y="0" width="232.023" height="24" filterUnits="userSpaceOnUse" color-interpolation-filters="sRGB">
<feFlood flood-opacity="0" result="BackgroundImageFix"/>
<feColorMatrix in="SourceAlpha" type="matrix" values="0 0 0 0 0 0 0 0 0 0 0 0 0 0 0 0 0 0 127 0" result="hardAlpha"/>
<feOffset/>
<feGaussianBlur stdDeviation="5.5"/>
<feComposite in2="hardAlpha" operator="out"/>
<feColorMatrix type="matrix" values="0 0 0 0 0.202036 0 0 0 0 1 0 0 0 0 0.661042 0 0 0 0.89 0"/>
<feBlend mode="normal" in2="BackgroundImageFix" result="effect1_dropShadow_605_5922"/>
<feBlend mode="normal" in="SourceGraphic" in2="effect1_dropShadow_605_5922" result="shape"/>
</filter>
<linearGradient id="paint0_linear_605_5922" x1="120.407" y1="15.7575" x2="120.431" y2="5.75748" gradientUnits="userSpaceOnUse">
<stop offset="0.25" stop-color="#22D5BD"/>
<stop offset="0.475962" stop-color="#CAFFE8"/>
<stop offset="0.673077" stop-color="#22D5BD"/>
</linearGradient>
<linearGradient id="paint1_linear_605_5922" x1="398.641" y1="15.6096" x2="398.602" y2="5.60963" gradientUnits="userSpaceOnUse">
<stop offset="0.25" stop-color="#22D5BD"/>
<stop offset="0.475962" stop-color="#CAFFE8"/>
<stop offset="0.673077" stop-color="#22D5BD"/>
</linearGradient>
</defs>
</svg>
