<svg width="64" height="37" viewBox="0 0 64 37" fill="none" xmlns="http://www.w3.org/2000/svg">
<path d="M26.8514 24.6414C29.9381 25.2624 35.727 25.1628 39.572 23.0315C43.4169 20.9002 43.8227 17.566 42.872 15.7611M47.7421 9.43408C56.4135 14.6444 56.2704 22.844 47.4224 27.7485C38.5745 32.653 24.3723 32.4051 15.7009 27.1948C7.02954 21.9845 7.17267 13.7849 16.0206 8.88038C24.8685 3.97589 39.0707 4.22379 47.7421 9.43408Z" stroke="#F8961E" stroke-width="2.74758" stroke-linecap="round"/>
<path d="M22.2361 16.3177C23.1033 16.8388 23.089 17.6587 22.2042 18.1492C21.3194 18.6396 19.8991 18.6148 19.032 18.0938C18.1649 17.5728 18.1792 16.7528 19.064 16.2624C19.9488 15.7719 21.369 15.7967 22.2361 16.3177Z" fill="#F8961E"/>
<path d="M31.8485 10.9895C32.7156 11.5105 32.7013 12.3305 31.8165 12.8209C30.9317 13.3114 29.5115 13.2866 28.6444 12.7656C27.7772 12.2445 27.7915 11.4246 28.6763 10.9341C29.5611 10.4437 30.9813 10.4685 31.8485 10.9895Z" fill="#F8961E"/>
</svg>
