<svg width="76" height="49" viewBox="0 0 76 49" fill="none" xmlns="http://www.w3.org/2000/svg">
<path d="M38.6039 21.751C39.9092 22.6257 39.8775 23.9941 38.5331 24.8075C37.1887 25.6208 35.0407 25.5711 33.7354 24.6964C32.4301 23.8217 32.4617 22.4533 33.8061 21.6399C35.1505 20.8265 37.2985 20.8763 38.6039 21.751Z" fill="#38DDBC"/>
<path d="M26.7575 29.6911L26.0044 30.497L26.7575 29.6911ZM22.2176 27.6791L21.1591 28.3291L22.2176 27.6791ZM19.6741 20.7942L21.1538 20.9009L19.6741 20.7942ZM19.5107 24.2792L20.9752 24.1391L19.5107 24.2792ZM42.8541 32.0808L42.0811 31.2615L42.8541 32.0808ZM30.4463 31.1239L31.1994 30.318L30.4463 31.1239ZM34.6981 32.5931L34.2477 33.4893L34.6981 32.5931ZM48.8559 19.9861L50.1585 19.5484L48.8559 19.9861ZM50.9434 22.7647L52.3721 22.5241L50.9434 22.7647ZM49.7233 27.9249L48.4777 27.3915L49.7233 27.9249ZM33.2037 12.6088L33.2956 13.5551L33.2037 12.6088ZM38.6783 12.6828L38.3838 13.6069L38.6783 12.6828ZM46.7969 17.5673L45.4943 18.005L45.4943 18.005L46.7969 17.5673ZM43.8728 14.5776L44.9465 13.9377L43.8728 14.5776ZM26.1355 13.127L26.6997 14.0107L26.1355 13.127ZM20.8478 16.326L22.2051 16.7299L20.8478 16.326ZM39.4671 33.2816L40.5332 32.6367L40.5332 32.6367L39.4671 33.2816ZM24.2366 13.8662C23.6649 13.4832 22.7242 13.4614 22.1354 13.8176C21.5466 14.1738 21.5328 14.7731 22.1044 15.1562L23.1705 14.5112L24.2366 13.8662ZM32.7401 22.2832C33.3118 22.6662 34.2525 22.688 34.8413 22.3318C35.43 21.9756 35.4439 21.3763 34.8723 20.9932L33.8062 21.6382L32.7401 22.2832ZM51.2125 25.4524L49.7435 25.2899L51.2125 25.4524ZM38.8998 32.9015L38.72 31.9591L38.8998 32.9015ZM46.7969 17.5673L45.4943 18.005L47.5534 20.4238L48.8559 19.9861L50.1585 19.5484L48.0995 17.1295L46.7969 17.5673ZM30.4463 31.1239L31.1994 30.318L27.5106 28.8852L26.7575 29.6911L26.0044 30.497L29.6933 31.9298L30.4463 31.1239ZM26.7575 29.6911L27.5106 28.8852C25.0204 27.9179 24.0198 27.5203 23.276 27.029L22.2176 27.6791L21.1591 28.3291C22.2426 29.0448 23.6595 29.5862 26.0044 30.497L26.7575 29.6911ZM19.6741 20.7942L18.1944 20.6875C17.9463 22.4104 17.785 23.4461 18.0462 24.4193L19.5107 24.2792L20.9752 24.1391C20.7959 23.471 20.8904 22.7305 21.1538 20.9009L19.6741 20.7942ZM22.2176 27.6791L23.276 27.029C22.069 26.2318 21.2661 25.2233 20.9752 24.1391L19.5107 24.2792L18.0462 24.4193C18.4398 25.886 19.5261 27.2505 21.1591 28.3291L22.2176 27.6791ZM46.4604 30.1179L45.4253 29.4243C43.6004 30.5284 42.8535 30.9722 42.0811 31.2615L42.8541 32.0808L43.6271 32.9001C44.7538 32.4783 45.778 31.8506 47.4955 30.8115L46.4604 30.1179ZM30.4463 31.1239L29.6933 31.9298C31.7568 32.7314 32.9905 33.2172 34.2477 33.4893L34.6981 32.5931L35.1485 31.697C34.2866 31.5104 33.3922 31.1696 31.1994 30.318L30.4463 31.1239ZM48.8559 19.9861L47.5534 20.4238C48.7773 21.8616 49.2661 22.4478 49.5147 23.0054L50.9434 22.7647L52.3721 22.5241C52.0094 21.7108 51.3104 20.9015 50.1585 19.5484L48.8559 19.9861ZM46.4604 30.1179L47.4955 30.8115C49.213 29.7724 50.2498 29.1532 50.969 28.4583L49.7233 27.9249L48.4777 27.3915C47.9846 27.8679 47.2503 28.3202 45.4253 29.4243L46.4604 30.1179ZM33.2037 12.6088L33.2956 13.5551C36.1787 13.481 37.3451 13.4588 38.3838 13.6069L38.6783 12.6828L38.9727 11.7587C37.4596 11.5429 35.8269 11.5926 33.1119 11.6624L33.2037 12.6088ZM46.7969 17.5673L48.0995 17.1295C46.7906 15.5919 46.0137 14.6632 44.9465 13.9377L43.8728 14.5776L42.7992 15.2175C43.5318 15.7155 44.1044 16.3721 45.4943 18.005L46.7969 17.5673ZM38.6783 12.6828L38.3838 13.6069C40.0695 13.8472 41.6103 14.4093 42.7992 15.2175L43.8728 14.5776L44.9465 13.9377C43.338 12.8443 41.2533 12.0838 38.9727 11.7587L38.6783 12.6828ZM33.2037 12.6088L33.1119 11.6624C29.5246 11.7546 27.3695 11.7975 25.5712 12.2432L26.1355 13.127L26.6997 14.0107C27.9312 13.7055 29.4784 13.6533 33.2956 13.5551L33.2037 12.6088ZM19.6741 20.7942L21.1538 20.9009C21.5026 18.4786 21.6636 17.4975 22.2051 16.7299L20.8478 16.326L19.4904 15.9221C18.6996 17.0429 18.5222 18.4111 18.1944 20.6875L19.6741 20.7942ZM26.1355 13.127L25.5712 12.2432C22.8604 12.915 20.6825 14.2326 19.4904 15.9221L20.8478 16.326L22.2051 16.7299C23.0863 15.4812 24.696 14.5073 26.6997 14.0107L26.1355 13.127ZM41.7619 34.8194L42.828 34.1744L40.5332 32.6367L39.4671 33.2816L38.401 33.9266L40.6959 35.4644L41.7619 34.8194ZM51.7797 25.8325L50.7136 26.4775L53.0085 28.0152L54.0745 27.3703L55.1406 26.7253L52.8458 25.1875L51.7797 25.8325ZM53.8956 35.1003L52.8605 34.4067C50.0493 36.1075 45.5576 36.0035 42.828 34.1744L41.7619 34.8194L40.6959 35.4644C44.5687 38.0596 50.9419 38.2071 54.9307 35.7939L53.8956 35.1003ZM53.8956 35.1003L54.9307 35.7939C58.9195 33.3807 59.0135 29.3205 55.1406 26.7253L54.0745 27.3703L53.0085 28.0152C55.738 29.8443 55.6718 32.7058 52.8605 34.4067L53.8956 35.1003ZM23.1705 14.5112L22.1044 15.1562L32.7401 22.2832L33.8062 21.6382L34.8723 20.9932L24.2366 13.8662L23.1705 14.5112ZM50.9434 22.7647L49.5147 23.0054C49.8511 23.7598 49.9232 24.5387 49.7435 25.2899L51.2125 25.4524L52.6815 25.6149C52.9247 24.5987 52.8271 23.5447 52.3721 22.5241L50.9434 22.7647ZM51.2125 25.4524L49.7435 25.2899C49.5652 26.0349 49.1393 26.7523 48.4777 27.3915L49.7233 27.9249L50.969 28.4583C51.8641 27.5935 52.4404 26.6226 52.6815 25.6149L51.2125 25.4524ZM51.7797 25.8325L52.8458 25.1875L52.2786 24.8074L51.2125 25.4524L50.1464 26.0974L50.7136 26.4775L51.7797 25.8325ZM42.8541 32.0808L42.0811 31.2615C41.0447 31.6495 39.8976 31.8837 38.72 31.9591L38.8998 32.9015L39.0797 33.8439C40.6727 33.742 42.225 33.4251 43.6271 32.9001L42.8541 32.0808ZM38.8998 32.9015L38.72 31.9591C37.5325 32.035 36.3146 31.9494 35.1485 31.697L34.6981 32.5931L34.2477 33.4893C35.8253 33.8308 37.4734 33.9467 39.0797 33.8439L38.8998 32.9015ZM39.4671 33.2816L40.5332 32.6367L39.9659 32.2565L38.8998 32.9015L37.8337 33.5465L38.401 33.9266L39.4671 33.2816Z" fill="#38DDBC"/>
</svg>
