<svg width="65" height="42" viewBox="0 0 65 42" fill="none" xmlns="http://www.w3.org/2000/svg">
<path d="M23.7071 33.162L24.1314 32.0954L23.7071 33.162ZM16.2566 28.0213L17.9226 27.8139L16.2566 28.0213ZM35.9757 24.9887L34.3483 25.2995L35.9757 24.9887ZM38.4789 23.3631L38.9575 22.3062L38.4789 23.3631ZM51.0648 15.3957L49.4224 15.6713L51.0648 15.3957ZM43.1488 10.5573L42.8293 11.6392L43.1488 10.5573ZM22.4553 7.98002L22.7748 6.8981L22.4553 7.98002ZM12.2879 14.5828L13.9539 14.3753L12.2879 14.5828ZM45.4608 31.0806C46.1232 31.5109 47.1973 31.5109 47.8598 31.0806C48.5223 30.6504 48.5223 29.9529 47.8598 29.5227L46.6603 30.3017L45.4608 31.0806ZM44.6611 27.4454C43.9986 27.0152 42.9245 27.0152 42.2621 27.4454C41.5996 27.8757 41.5996 28.5732 42.2621 29.0034L43.4616 28.2244L44.6611 27.4454ZM53.4575 30.042C54.12 30.4722 55.1941 30.4722 55.8565 30.042C56.519 29.6118 56.519 28.9143 55.8565 28.4841L54.657 29.263L53.4575 30.042ZM52.6578 26.4068C51.9954 25.9766 50.9213 25.9766 50.2588 26.4068C49.5963 26.837 49.5963 27.5345 50.2588 27.9648L51.4583 27.1858L52.6578 26.4068ZM43.8614 36.2738C44.5239 36.704 45.598 36.704 46.2604 36.2738C46.9229 35.8436 46.9229 35.146 46.2604 34.7158L45.0609 35.4948L43.8614 36.2738ZM43.0617 32.6386C42.3993 32.2084 41.3252 32.2084 40.6627 32.6386C40.0003 33.0688 40.0002 33.7663 40.6627 34.1965L41.8622 33.4176L43.0617 32.6386ZM22.4553 7.98002L22.1358 9.06193L42.8293 11.6392L43.1488 10.5573L43.4684 9.47537L22.7748 6.8981L22.4553 7.98002ZM16.2566 28.0213L17.9226 27.8139L13.9539 14.3753L12.2879 14.5828L10.6219 14.7903L14.5906 28.2288L16.2566 28.0213ZM23.7071 33.162L24.1314 32.0954C20.9662 31.5644 18.5363 29.8921 17.9226 27.8139L16.2566 28.0213L14.5906 28.2288C15.4533 31.1501 18.8584 33.4864 23.2829 34.2286L23.7071 33.162ZM35.9757 24.9887L34.3483 25.2995C36.179 29.3424 30.458 33.1567 24.1314 32.0954L23.7071 33.162L23.2829 34.2286C32.1166 35.7106 40.19 30.3904 37.6032 24.6779L35.9757 24.9887ZM38.4789 23.3631L38.9575 22.3062C36.1384 21.7678 33.5192 23.4688 34.3483 25.2995L35.9757 24.9887L37.6032 24.6779C37.5317 24.5201 37.7574 24.3736 38.0004 24.42L38.4789 23.3631ZM51.0648 15.3957L49.4224 15.6713C51.0567 19.7798 45.1831 23.4951 38.9575 22.3062L38.4789 23.3631L38.0004 24.42C46.7968 26.0998 54.9893 20.8569 52.7073 15.1202L51.0648 15.3957ZM43.1488 10.5573L42.8293 11.6392C46.0296 12.0378 48.6047 13.6157 49.4224 15.6713L51.0648 15.3957L52.7073 15.1202C51.5643 12.2469 47.9668 10.0356 43.4684 9.47537L43.1488 10.5573ZM22.4553 7.98002L22.7748 6.8981C15.5673 6.00045 9.23961 10.1097 10.6219 14.7903L12.2879 14.5828L13.9539 14.3753C13.0233 11.2241 17.2834 8.45759 22.1358 9.06193L22.4553 7.98002ZM46.6603 30.3017L47.8598 29.5227L44.6611 27.4454L43.4616 28.2244L42.2621 29.0034L45.4608 31.0806L46.6603 30.3017ZM54.657 29.263L55.8565 28.4841L52.6578 26.4068L51.4583 27.1858L50.2588 27.9648L53.4575 30.042L54.657 29.263ZM45.0609 35.4948L46.2604 34.7158L43.0617 32.6386L41.8622 33.4176L40.6627 34.1965L43.8614 36.2738L45.0609 35.4948Z" fill="#42FFD9"/>
</svg>
