<svg width="65" height="38" viewBox="0 0 65 38" fill="none" xmlns="http://www.w3.org/2000/svg">
<path d="M16.4798 18.2864C12.4095 15.8407 12.4436 11.9334 16.556 9.55909C20.6683 7.18481 27.3017 7.2427 31.372 9.68839L31.3893 9.69875M16.4798 18.2864C17.3972 17.7361 18.4645 17.1405 19.697 16.429L28.1548 11.5459C29.3795 10.8388 30.4414 10.2257 31.3893 9.69875M16.4798 18.2864C13.9682 19.7932 12.5827 20.8258 12.0246 21.9402C11.3754 23.2365 11.4711 24.6256 12.2934 25.8933M12.2934 25.8933L22.8915 25.9858C32.7689 26.072 37.7076 26.1151 40.7919 24.3344C43.8761 22.5537 43.9015 19.6446 43.9523 13.8263L44.0076 7.48559C44.0082 7.42342 44.0199 7.36152 44.0427 7.30094M12.2934 25.8933C12.3187 25.9324 12.3448 25.9713 12.3715 26.0101C13.3891 27.489 15.9095 28.7037 20.9502 31.1331C25.0761 33.1215 27.139 34.1157 29.4031 34.4576C31.3976 34.7588 33.4927 34.7087 35.4279 34.3136C37.6247 33.8652 39.5101 32.7766 43.2809 30.5996L51.7387 25.7165C55.5095 23.5394 57.3949 22.4509 58.2 21.1662C58.9092 20.0345 59.036 18.8018 58.5645 17.6212C58.0293 16.2811 56.3828 15.0465 53.0899 12.5772C49.0666 9.56043 47.055 8.05202 44.5649 7.42323C44.3923 7.37965 44.2182 7.33889 44.0427 7.30094M31.3893 9.69875C34.0073 8.24337 35.7559 7.44488 37.6631 7.13776C39.7647 6.79934 41.9948 6.85803 44.0427 7.30094" stroke="#037B63" stroke-width="2.57941"/>
</svg>
